<?xml version="1.0" encoding="UTF-8"?>
<svg width="70px" height="96px" viewBox="0 0 70 96" version="1.1" xmlns="http://www.w3.org/2000/svg" xmlns:xlink="http://www.w3.org/1999/xlink">
    <!-- Generator: Sketch 43.1 (39012) - http://www.bohemiancoding.com/sketch -->
    <title>search</title>
    <desc>Created with Sketch.</desc>
    <defs></defs>
    <g id="Page-1" stroke="none" stroke-width="1" fill="none" fill-rule="evenodd">
        <g id="Desktop-HD" transform="translate(-1275.000000, -343.000000)" fill-rule="nonzero" fill="#AAAAAA">
            <g id="search" transform="translate(1275.000000, 343.000000)">
                <path d="M67.4473333,75.6946429 L49.2946667,49.8510714 C53.5248062,35.1334818 50.4990387,18.2086573 41.8414484,8.16101477 C33.1838582,-1.88662771 20.9298924,-2.69483174 11.6568798,6.17020703 C2.38386717,15.0352458 -1.72805559,31.4893077 1.5281903,46.700658 C4.78443619,61.9120085 14.6432893,72.3043744 25.813,72.2996429 C30.4359384,72.2786462 34.9654502,70.4447586 38.9043333,66.9992857 L56.2296667,91.665 C58.2252555,94.5755439 61.1659967,95.7335663 63.9285036,94.6966938 C66.6910107,93.6598216 68.848507,90.5882394 69.5768117,86.6553158 C70.3051166,82.7223926 69.4917154,78.5357209 67.4473333,75.6946429 L67.4473333,75.6946429 Z M33.8186667,55.4285714 C31.4069163,57.4900487 28.6503243,58.5908237 25.8373333,58.6157143 C17.0753953,58.5389509 10.0161201,48.3644771 10.0699292,35.8902886 C10.1237384,23.4160999 17.270256,13.3658299 26.0321954,13.4422804 C34.7941348,13.518731 41.8535893,23.6929523 41.8,36.1671429 C41.7855669,38.8196685 41.4394992,41.4473451 40.778,43.9271429 C39.4597224,48.7891996 37.0010012,52.8526356 33.8186667,55.4285714 L33.8186667,55.4285714 Z" id="Shape"></path>
            </g>
        </g>
    </g>
</svg>