<?xml version="1.0" encoding="UTF-8"?>
<svg width="29px" height="28px" viewBox="0 0 29 28" version="1.1" xmlns="http://www.w3.org/2000/svg" xmlns:xlink="http://www.w3.org/1999/xlink">
    <!-- Generator: Sketch 43.1 (39012) - http://www.bohemiancoding.com/sketch -->
    <title>Shape</title>
    <desc>Created with Sketch.</desc>
    <defs></defs>
    <g id="Page-1" stroke="none" stroke-width="1" fill="none" fill-rule="evenodd">
        <path d="M27.54,21.85 L20.08,14.39 C21.8184135,10.1416236 20.5749474,5.25610725 17.0170336,2.35575684 C13.4591198,-0.544593567 8.42324344,-0.777889573 4.61241634,1.78109069 C0.801589247,4.34007096 -0.888242023,9.08969708 0.449941218,13.4806023 C1.78812446,17.8715076 5.83970793,20.8713658 10.43,20.87 C12.3298377,20.8639391 14.1912809,20.3345695 15.81,19.34 L22.93,26.46 C23.750105,27.300157 24.9586288,27.6344315 26.0939056,27.3351281 C27.2291825,27.0358248 28.1158248,26.1491825 28.4151281,25.0139056 C28.7144315,23.8786288 28.380157,22.670105 27.54,21.85 L27.54,21.85 Z M13.72,16 C12.7288697,16.5950656 11.5960237,16.9128151 10.44,16.92 C6.83920355,16.8978415 3.93813153,13.96088 3.96024489,10.3600833 C3.98235826,6.75928658 6.91928329,3.8581777 10.5200803,3.88024589 C14.1208773,3.90231409 17.022023,6.83920272 17,10.44 C16.9940686,11.2056775 16.851849,11.9641821 16.58,12.68 C16.0382421,14.0834803 15.0278087,15.2564309 13.72,16 L13.72,16 Z" id="Shape" fill="#AAAAAA" fill-rule="nonzero"></path>
    </g>
</svg>